<svg width="434" height="182" viewBox="0 0 434 182" fill="none" xmlns="http://www.w3.org/2000/svg">
<path d="M35.584 132.536C30.208 132.536 25.1733 131.256 20.48 128.696C15.7867 126.051 11.9467 122.253 8.96 117.304C6.05867 112.269 4.608 106.253 4.608 99.256C4.608 92.2587 6.05867 86.2853 8.96 81.336C11.9467 76.3013 15.7867 72.504 20.48 69.944C25.1733 67.2987 30.208 65.976 35.584 65.976C40.8747 65.976 45.8667 67.2987 50.56 69.944C55.2533 72.504 59.0507 76.3013 61.952 81.336C64.9387 86.2853 66.432 92.2587 66.432 99.256C66.432 106.253 64.9387 112.269 61.952 117.304C59.0507 122.253 55.2533 126.051 50.56 128.696C45.8667 131.256 40.8747 132.536 35.584 132.536ZM35.584 117.304C38.144 117.304 40.2773 116.579 41.984 115.128C43.776 113.677 45.0987 111.587 45.952 108.856C46.8053 106.125 47.232 102.925 47.232 99.256C47.232 95.5867 46.8053 92.3867 45.952 89.656C45.0987 86.9253 43.776 84.8347 41.984 83.384C40.2773 81.9333 38.144 81.208 35.584 81.208C32.9387 81.208 30.7627 81.9333 29.056 83.384C27.3493 84.8347 26.0693 86.9253 25.216 89.656C24.3627 92.3867 23.936 95.5867 23.936 99.256C23.936 102.925 24.3627 106.125 25.216 108.856C26.0693 111.587 27.3493 113.677 29.056 115.128C30.7627 116.579 32.9387 117.304 35.584 117.304ZM112.6 132.536C109.784 132.536 106.968 131.853 104.152 130.488C101.336 129.037 98.648 126.947 96.088 124.216H95.576L94.04 131H79.32V41.272H98.136V63.288L97.624 73.016C100.013 70.7973 102.659 69.0907 105.56 67.896C108.461 66.616 111.405 65.976 114.392 65.976C119.512 65.976 123.949 67.2987 127.704 69.944C131.459 72.5893 134.317 76.344 136.28 81.208C138.328 85.9867 139.352 91.6187 139.352 98.104C139.352 105.357 138.072 111.587 135.512 116.792C132.952 121.912 129.624 125.837 125.528 128.568C121.517 131.213 117.208 132.536 112.6 132.536ZM108.248 117.176C110.381 117.176 112.344 116.536 114.136 115.256C116.013 113.976 117.464 111.971 118.488 109.24C119.512 106.424 120.024 102.84 120.024 98.488C120.024 94.648 119.597 91.4907 118.744 89.016C117.976 86.456 116.781 84.536 115.16 83.256C113.539 81.976 111.491 81.336 109.016 81.336C107.139 81.336 105.304 81.8053 103.512 82.744C101.805 83.5973 100.013 85.048 98.136 87.096V113.08C99.7573 114.531 101.464 115.597 103.256 116.28C105.048 116.877 106.712 117.176 108.248 117.176ZM158.735 155.832C156.858 155.832 155.194 155.704 153.743 155.448C152.378 155.192 151.055 154.808 149.775 154.296L153.103 140.472C154.042 140.728 154.81 140.856 155.407 140.856C156.09 140.941 156.73 140.984 157.327 140.984C160.484 140.984 162.916 140.173 164.623 138.552C166.415 137.016 167.695 135.053 168.463 132.664L169.359 129.336L144.911 67.512H163.855L172.943 94.776C173.882 97.6773 174.735 100.621 175.503 103.608C176.271 106.595 177.082 109.667 177.935 112.824H178.447C179.13 109.837 179.812 106.851 180.495 103.864C181.263 100.792 182.031 97.7627 182.799 94.776L190.479 67.512H208.527L186.511 131.64C184.463 136.931 182.244 141.368 179.855 144.952C177.551 148.536 174.692 151.224 171.279 153.016C167.951 154.893 163.77 155.832 158.735 155.832Z" fill="#ECF6E6"/>
<path d="M214.944 131L199.072 67.512H217.888L223.904 96.952C224.501 99.9387 225.013 103.011 225.44 106.168C225.867 109.24 226.293 112.525 226.72 116.024H227.232C227.829 112.525 228.384 109.197 228.896 106.04C229.493 102.883 230.133 99.8533 230.816 96.952L237.472 67.512H254.624L261.664 96.952C262.347 99.9387 262.987 103.011 263.584 106.168C264.181 109.24 264.779 112.525 265.376 116.024H265.888C266.485 112.525 266.955 109.24 267.296 106.168C267.723 103.011 268.192 99.9387 268.704 96.952L274.72 67.512H292.256L277.024 131H254.368L248.992 105.656C248.48 102.755 247.925 99.8533 247.328 96.952C246.816 93.9653 246.304 90.552 245.792 86.712H245.28C244.939 90.552 244.512 93.9653 244 96.952C243.488 99.8533 242.933 102.755 242.336 105.656L237.088 131H214.944ZM331.111 132.536C325.052 132.536 319.591 131.213 314.727 128.568C309.863 125.923 306.023 122.125 303.207 117.176C300.391 112.227 298.983 106.253 298.983 99.256C298.983 92.344 300.391 86.4133 303.207 81.464C306.108 76.5147 309.863 72.7173 314.471 70.072C319.079 67.3413 323.9 65.976 328.935 65.976C334.994 65.976 340.028 67.3413 344.039 70.072C348.05 72.7173 351.036 76.344 352.999 80.952C354.962 85.56 355.943 90.7227 355.943 96.44C355.943 98.0613 355.858 99.6827 355.687 101.304C355.516 102.84 355.346 104.077 355.175 105.016H313.575L313.319 91.96H339.815C339.815 88.632 339.004 85.9013 337.383 83.768C335.762 81.5493 333.074 80.44 329.319 80.44C327.271 80.44 325.266 80.9947 323.303 82.104C321.34 83.2133 319.719 85.1333 318.439 87.864C317.159 90.5947 316.562 94.392 316.647 99.256C316.732 104.035 317.586 107.789 319.207 110.52C320.914 113.251 323.047 115.213 325.607 116.408C328.167 117.517 330.855 118.072 333.671 118.072C336.146 118.072 338.492 117.731 340.711 117.048C343.015 116.28 345.276 115.256 347.495 113.976L353.639 125.496C350.482 127.715 346.898 129.464 342.887 130.744C338.876 131.939 334.951 132.536 331.111 132.536ZM402.225 132.536C399.409 132.536 396.593 131.853 393.777 130.488C390.961 129.037 388.273 126.947 385.713 124.216H385.201L383.665 131H368.945V41.272H387.761V63.288L387.249 73.016C389.638 70.7973 392.284 69.0907 395.185 67.896C398.086 66.616 401.03 65.976 404.017 65.976C409.137 65.976 413.574 67.2987 417.329 69.944C421.084 72.5893 423.942 76.344 425.905 81.208C427.953 85.9867 428.977 91.6187 428.977 98.104C428.977 105.357 427.697 111.587 425.137 116.792C422.577 121.912 419.249 125.837 415.153 128.568C411.142 131.213 406.833 132.536 402.225 132.536ZM397.873 117.176C400.006 117.176 401.969 116.536 403.761 115.256C405.638 113.976 407.089 111.971 408.113 109.24C409.137 106.424 409.649 102.84 409.649 98.488C409.649 94.648 409.222 91.4907 408.369 89.016C407.601 86.456 406.406 84.536 404.785 83.256C403.164 81.976 401.116 81.336 398.641 81.336C396.764 81.336 394.929 81.8053 393.137 82.744C391.43 83.5973 389.638 85.048 387.761 87.096V113.08C389.382 114.531 391.089 115.597 392.881 116.28C394.673 116.877 396.337 117.176 397.873 117.176Z" fill="#6AAC43"/>
</svg>
